<svg width="41" height="40" viewBox="0 0 41 40" fill="none" xmlns="http://www.w3.org/2000/svg">
  <path
    d="M21.2919 33.75H8.11998C7.9614 33.7521 7.80401 33.7224 7.65709 33.6627C7.51017 33.603 7.3767 33.5144 7.26456 33.4023C7.15242 33.2902 7.06387 33.1567 7.00416 33.0098C6.94444 32.8628 6.91475 32.7055 6.91685 32.5469V19.375C6.91685 15.5625 8.43136 11.9062 11.1272 9.21034C13.823 6.5145 17.4794 5 21.2919 5C23.1796 5 25.0489 5.37182 26.7929 6.09423C28.537 6.81664 30.1217 7.8755 31.4565 9.21034C32.7914 10.5452 33.8502 12.1299 34.5726 13.8739C35.295 15.618 35.6669 17.4872 35.6669 19.375C35.6669 21.2628 35.295 23.132 34.5726 24.8761C33.8502 26.6201 32.7914 28.2048 31.4565 29.5397C30.1217 30.8745 28.537 31.9334 26.7929 32.6558C25.0489 33.3782 23.1796 33.75 21.2919 33.75Z"
    stroke="white" stroke-width="2.5" stroke-linecap="round" stroke-linejoin="round" />
  <path
    d="M23.0886 20C23.0886 20.9924 22.2841 21.7969 21.2917 21.7969C20.2994 21.7969 19.4949 20.9924 19.4949 20C19.4949 19.0076 20.2994 18.2031 21.2917 18.2031C22.2841 18.2031 23.0886 19.0076 23.0886 20Z"
    fill="white" stroke="white" stroke-width="0.15625" />
  <path
    d="M15.5886 20C15.5886 20.9924 14.7841 21.7969 13.7917 21.7969C12.7994 21.7969 11.9949 20.9924 11.9949 20C11.9949 19.0076 12.7994 18.2031 13.7917 18.2031C14.7841 18.2031 15.5886 19.0076 15.5886 20Z"
    fill="white" stroke="white" stroke-width="0.15625" />
  <path
    d="M30.5886 20C30.5886 20.9924 29.7841 21.7969 28.7917 21.7969C27.7994 21.7969 26.9949 20.9924 26.9949 20C26.9949 19.0076 27.7994 18.2031 28.7917 18.2031C29.7841 18.2031 30.5886 19.0076 30.5886 20Z"
    fill="white" stroke="white" stroke-width="0.15625" />
</svg>